<mxfile host="Electron" modified="2025-04-13T15:26:45.801Z" agent="Mozilla/5.0 (Macintosh; Intel Mac OS X 10_15_7) AppleWebKit/537.36 (KHTML, like Gecko) draw.io/24.6.4 Chrome/124.0.6367.207 Electron/30.0.6 Safari/537.36" etag="DcXNzqxnHcRkU1Jp1usw" version="24.6.4" type="device">
  <diagram name="Page-1" id="bAU94hHGk1Ug2HeR9SZf">
    <mxGraphModel dx="1228" dy="799" grid="1" gridSize="10" guides="1" tooltips="1" connect="1" arrows="1" fold="1" page="1" pageScale="1" pageWidth="1169" pageHeight="827" math="0" shadow="0">
      <root>
        <mxCell id="0" />
        <mxCell id="1" parent="0" />
        <mxCell id="0KPPoKpthKuIsjn_yJPN-1" value="Початок / Кінець" style="ellipse;whiteSpace=wrap;html=1;strokeWidth=3.1496000000000004;" vertex="1" parent="1">
          <mxGeometry x="240" y="130" width="160" height="80" as="geometry" />
        </mxCell>
        <mxCell id="0KPPoKpthKuIsjn_yJPN-2" value="Дія / Команда" style="rounded=0;whiteSpace=wrap;html=1;strokeWidth=3.1496000000000004;" vertex="1" parent="1">
          <mxGeometry x="240" y="270" width="160" height="60" as="geometry" />
        </mxCell>
        <mxCell id="0KPPoKpthKuIsjn_yJPN-3" value="Умова / Запитання" style="rhombus;whiteSpace=wrap;html=1;strokeWidth=3.1496000000000004;fontSize=21;" vertex="1" parent="1">
          <mxGeometry x="660" y="140" width="280" height="100" as="geometry" />
        </mxCell>
        <mxCell id="0KPPoKpthKuIsjn_yJPN-4" value="" style="endArrow=classic;html=1;rounded=0;exitX=0.5;exitY=1;exitDx=0;exitDy=0;strokeWidth=3.1496000000000004;fontSize=21;" edge="1" parent="1" source="0KPPoKpthKuIsjn_yJPN-3">
          <mxGeometry width="50" height="50" relative="1" as="geometry">
            <mxPoint x="560" y="440" as="sourcePoint" />
            <mxPoint x="800" y="270" as="targetPoint" />
          </mxGeometry>
        </mxCell>
        <mxCell id="0KPPoKpthKuIsjn_yJPN-5" value="Так" style="edgeLabel;html=1;align=center;verticalAlign=middle;resizable=0;points=[];fontSize=21;" vertex="1" connectable="0" parent="0KPPoKpthKuIsjn_yJPN-4">
          <mxGeometry x="-0.08" relative="1" as="geometry">
            <mxPoint x="30" as="offset" />
          </mxGeometry>
        </mxCell>
        <mxCell id="0KPPoKpthKuIsjn_yJPN-6" value="" style="endArrow=classic;html=1;rounded=0;exitX=0;exitY=0.5;exitDx=0;exitDy=0;strokeWidth=3.1496000000000004;fontSize=21;" edge="1" parent="1" source="0KPPoKpthKuIsjn_yJPN-3">
          <mxGeometry width="50" height="50" relative="1" as="geometry">
            <mxPoint x="560" y="440" as="sourcePoint" />
            <mxPoint x="620" y="260" as="targetPoint" />
            <Array as="points">
              <mxPoint x="620" y="190" />
            </Array>
          </mxGeometry>
        </mxCell>
        <mxCell id="0KPPoKpthKuIsjn_yJPN-7" value="Ні" style="edgeLabel;html=1;align=center;verticalAlign=middle;resizable=0;points=[];fontSize=21;" vertex="1" connectable="0" parent="0KPPoKpthKuIsjn_yJPN-6">
          <mxGeometry x="-0.5867" y="-1" relative="1" as="geometry">
            <mxPoint x="3" y="-19" as="offset" />
          </mxGeometry>
        </mxCell>
        <mxCell id="0KPPoKpthKuIsjn_yJPN-8" value="Введення / Виведення&lt;div&gt;Даних&lt;/div&gt;" style="shape=parallelogram;perimeter=parallelogramPerimeter;whiteSpace=wrap;html=1;fixedSize=1;strokeWidth=3.1496000000000004;" vertex="1" parent="1">
          <mxGeometry x="500" y="370" width="170" height="60" as="geometry" />
        </mxCell>
        <mxCell id="0KPPoKpthKuIsjn_yJPN-9" value="" style="endArrow=classic;html=1;rounded=0;strokeWidth=3.1496000000000004;" edge="1" parent="1">
          <mxGeometry width="50" height="50" relative="1" as="geometry">
            <mxPoint x="860" y="360" as="sourcePoint" />
            <mxPoint x="860" y="430" as="targetPoint" />
          </mxGeometry>
        </mxCell>
      </root>
    </mxGraphModel>
  </diagram>
</mxfile>
